<svg xmlns="http://www.w3.org/2000/svg" width="146.21" height="143.385"><g data-name="Gruppe 2" opacity=".857" fill="#fff"><path data-name="Pfad 10" d="M0 123.086c.844-2.92 2.909-4.73 5.387-6.32 5.162-3.313 10.361-6.6 15.28-10.248 4.615-3.425 8.872-7.329 13.316-10.986 6.28-5.17 12.514-10.4 18.909-15.421 3.576-2.808 7.753-4.809 11.026-8.067a2.143 2.143 0 0 1 3.191.061 2.238 2.238 0 0 1-.184 3.3c-1.771 1.584-3.667 3.028-5.442 4.608a3.792 3.792 0 0 0-1.182 1.814 15.212 15.212 0 0 0 1.035 10.022 10.07 10.07 0 0 0 5.671 5.315 32.8 32.8 0 0 0 11.575 2c7.6.162 15.2.628 22.8 1.026 2.059.108 2.742 1 2.525 3.107-.335 3.259-.74 6.511-1.143 10.007 2.4 0 4.7.027 7-.041.237-.007.593-.555.666-.9.922-4.371 1.846-8.741 2.679-13.129a7.366 7.366 0 0 0-5.038-8.647 89.533 89.533 0 0 0-16.073-4.341c-2.2-.347-4.355-1-6.552-1.39a560.303 560.303 0 0 0-12.085-2c-1.741-.274-2.719-1.233-2.519-2.626s1.389-2.126 3.134-1.9a33.2 33.2 0 0 1 4.236.568 6.52 6.52 0 0 0 5.593-1.228c3.282-2.189 6.684-4.2 9.979-6.367a30.7 30.7 0 0 0 9.845-10.914 6.661 6.661 0 0 0 .34-6.888 27.558 27.558 0 0 1-1.879 2.326c-1.284 1.275-2.633 1.353-3.609.315s-.8-2.337.481-3.62q20.338-20.345 40.68-40.686a13.068 13.068 0 0 0 1.168-1.249 3.658 3.658 0 0 0-.206-4.83 3.743 3.743 0 0 0-4.942-.43 5.179 5.179 0 0 1-1.71.938 2.023 2.023 0 0 1-2.332-1.233 2.148 2.148 0 0 1 .571-2.712 7.752 7.752 0 0 1 7.772-2 7.924 7.924 0 0 1 5.926 5.8 8 8 0 0 1-1.831 7.709c-.5.574-1.052 1.1-1.59 1.639q-16.857 16.86-33.738 33.7a1.8 1.8 0 0 0-.455 2.438 11.115 11.115 0 0 1-.205 10.045 32.937 32.937 0 0 1-10.3 12.385c-2.99 2.184-6.188 4.084-9.291 6.114-.187.122-.355.274-.785.609 3.64.71 7.064 1.188 10.38 2.072a115.442 115.442 0 0 1 12.619 3.978c5.377 2.119 8.067 7.845 6.854 13.738q-3.015 14.661-6.059 29.316c-.037.181-.056.366-.106.7 1.384.364 2.733.77 4.1 1.067a9.876 9.876 0 0 1 7.6 6.421 1.775 1.775 0 0 0 1.389.717c6.091.048 12.182.031 18.273.032 2.333 0 3.422.723 3.434 2.274s-1.078 2.294-3.4 2.294q-69.74 0-139.48.026a3.592 3.592 0 0 1-3.3-1.453v-1.72c1.2-1.967 3.3-1.256 5.056-1.479-.546-1.259-1.043-2.331-1.48-3.427-1.205-3.023-2.386-6.056-3.576-9.084Zm99.15-18.482c-.419-.053-.692-.108-.965-.119-6.887-.272-13.779-.445-20.658-.848-3.106-.182-6.183-.837-9.279-1.234a3.453 3.453 0 0 0-1.754.124c-7.416 3.305-14.8 6.676-22.213 9.993a164.537 164.537 0 0 0-25.985 14.172c-.417.286-1.033.83-.982 1.167.552 3.641 1.22 7.265 1.847 10.849h76.628c-1.164-2.485-.684-4.839.024-7.2a12.586 12.586 0 0 0 .437-2.087q1.006-8.279 1.974-16.563c.32-2.721.614-5.448.926-8.254Zm-71.162 10.487 33.8-15.522c-4.88-4.077-6.545-9.385-6.51-15.618-.769.572-1.312.944-1.819 1.36-3.162 2.589-6.333 5.167-9.468 7.789q-8.8 7.364-17.551 14.794a1.818 1.818 0 0 0-.649 1.442c.65 1.972 1.467 3.891 2.197 5.755Zm-3.939 2.5-2.415-6.138c-5.287 3.531-10.426 6.945-15.543 10.393a2.977 2.977 0 0 0-1.375 3.59c1.214 3.392 2.483 6.772 3.935 10.068a5.313 5.313 0 0 0 5.825 3.047c-.643-3.736-1.237-7.486-1.954-11.212a2.927 2.927 0 0 1 1.574-3.422c3.312-2.039 6.567-4.167 9.954-6.327Zm94.065 21.2.277-.623a18.936 18.936 0 0 0-3.323-1.893c-2.108-.705-4.312-1.118-6.468-1.686-1.876-.494-2.42-1.326-2.076-3.229.3-1.633.677-3.251 1.009-4.878.574-2.812 1.14-5.627 1.722-8.5h-6.714c-.97 5.729-1.942 11.328-2.857 16.936a3.313 3.313 0 0 0 3.233 3.854c1.756.062 3.516.016 5.273.017Z"/><path data-name="Pfad 11" d="M87.484 6.765c6.005-2.546 11.57-2.088 16.6 1.961 5.137 4.134 5.727 9.892 5.166 16.255a13.475 13.475 0 0 0 1.071-.833q4.448-4.432 8.88-8.88a17.843 17.843 0 0 0 5.386-12.079c.016-.332.026-.667.072-1a2.266 2.266 0 0 1 2.367-2.166 2.237 2.237 0 0 1 2.139 2.388 21.641 21.641 0 0 1-1.7 8.611 23.022 23.022 0 0 1-5.07 7.517q-14.333 14.331-28.658 28.66c-1.3 1.3-2.607 1.493-3.621.573a2.249 2.249 0 0 1 .016-3.4c1.023-1.046 2.142-2 3.5-3.249l-5.087-2.739c-.8 2.416-1.367 4.785-2.34 6.975-2.194 4.939-4.574 9.8-6.909 14.671a2.072 2.072 0 0 1-2.675 1.308 3.274 3.274 0 0 1-1.663-1.857 3.161 3.161 0 0 1 .622-2.085 78.678 78.678 0 0 0 7.033-15.548q.942-2.912 1.7-5.882a1.955 1.955 0 0 0-.261-1.517 20.336 20.336 0 0 1-4.68-11.218c-.6-.09-1.2-.166-1.793-.27a7.874 7.874 0 0 1-6.313-10.345c.445-1.4.977-2.777 1.455-4.169a7.711 7.711 0 0 1 6.519-5.462 7.846 7.846 0 0 1 7.776 3.179Zm-1.183 23c.328-.784.564-1.34.793-1.9.779-1.9 1.921-2.59 3.307-2s1.685 1.845.913 3.783l-1.652 4.143c1.646.82 3.156 1.591 4.682 2.327 2 .965 3.8.985 5.157-1.12a5.688 5.688 0 0 1 .8-.814c1.467-1.489 3.509-2.744 4.241-4.534.752-1.839.235-4.2.257-6.335.015-1.485 0-2.97 0-4.737l-1.15.934a16.1 16.1 0 0 1-10.4 3.675 2.019 2.019 0 0 1-2.2-1.958 2.05 2.05 0 0 1 1.662-2.448 10.558 10.558 0 0 1 1.55-.19 11.429 11.429 0 0 0 8.411-4.681 10.447 10.447 0 0 0-13.454-2.792 2.4 2.4 0 0 0-.837 1.191c-1.13 3.093-1.558 6.512-4.216 8.883a.759.759 0 0 0-.224.5 14.127 14.127 0 0 0 2.36 8.068Zm-2.089-18.838a4.071 4.071 0 0 0-2.9-3.407 3.5 3.5 0 0 0-4.109 2.018c-.627 1.532-1.158 3.107-1.649 4.688a3.231 3.231 0 0 0 1.632 3.851c1.456.8 3.591.6 4.347-.787a64.346 64.346 0 0 0 2.679-6.368Z"/><path data-name="Pfad 12" d="M74.271 66.459a2.773 2.773 0 0 1-2.547 2.722 2.249 2.249 0 0 1-2.323-2.184 2.916 2.916 0 0 1 2.575-2.737 2.218 2.218 0 0 1 2.295 2.199Z"/><path data-name="Pfad 13" d="M84.211 10.922a64.338 64.338 0 0 1-2.68 6.363c-.756 1.391-2.891 1.589-4.347.787a3.231 3.231 0 0 1-1.632-3.851c.491-1.581 1.022-3.156 1.649-4.688a3.505 3.505 0 0 1 4.109-2.018 4.071 4.071 0 0 1 2.901 3.407Z"/></g></svg>
