<svg xmlns="http://www.w3.org/2000/svg" width="162.191" height="162.199"><g data-name="Gruppe 3" opacity=".75" fill="#fff"><path data-name="Pfad 14" d="M0 158.714a3.937 3.937 0 0 1 3.672-1.613c7.179.066 14.36.029 21.54.029h1.88c-1.23-3.154-2.418-6.181-3.592-9.214-1.807-4.666-.728-8.016 3.42-10.77 5.1-3.386 10.337-6.585 15.229-10.246 4.979-3.727 9.567-7.97 14.4-11.891 6.1-4.948 12.3-9.785 18.411-14.724a2.321 2.321 0 0 0 .667-1.707c-.124-2.317-.428-4.623-.6-6.938-.136-1.875.777-3.051 2.318-3.146 1.426-.087 2.52.961 2.708 2.717.263 2.465.459 4.937.7 7.577 2.674.341 5.329.66 7.978 1.023a2.53 2.53 0 0 1 2.469 2.591 2.406 2.406 0 0 1-2.088 2.422 4.511 4.511 0 0 1-1.418-.021c-1.989-.243-3.975-.517-5.964-.768-.511-.065-1.028-.084-1.508-.122-2.008 5.626 1.074 12.349 6.469 14.281a29.27 29.27 0 0 0 9.287 1.659c7.33.173 14.657.553 21.982.906 2.576.124 3.329 1.078 3.073 3.681-.278 2.826-.613 5.648-.935 8.587h6.246c.623-2.949 1.267-5.969 1.9-8.991.269-1.29.531-2.583.755-3.881a6.581 6.581 0 0 0-4.339-7.529 94.865 94.865 0 0 0-17.557-4.606c-2.435-.443-4.829-1.113-7.254-1.614a3.814 3.814 0 0 1-2.815-2.288c-1.953-4.049-1.678-8.216-.581-12.372.793-3 1.769-5.962 2.792-8.9a9.2 9.2 0 0 0-1.169-8.438c-2.119-3.3-5.063-5.781-8.1-8.173-.911-.719-1.856-1.4-2.79-2.085-.871-.644-1.592-1.309-2.916-.611-1.158.611-2.66-.477-2.948-1.862a10.169 10.169 0 0 1-.124-2.046q-.009-25.1-.008-50.208a10.4 10.4 0 0 0-.1-2.051 2.589 2.589 0 0 0-2.65-2.264 2.626 2.626 0 0 0-2.723 2.186c-.081.3-.051.634-.121.941a2.619 2.619 0 0 1-2.716 2.168 2.454 2.454 0 0 1-2.273-2.581c-.227-3.438 2.6-6.888 6.286-7.666a7.793 7.793 0 0 1 8.89 5.173 11.516 11.516 0 0 1 .458 3.424q.069 8 0 16c-.007 1.007.212 1.427 1.339 1.612a14.026 14.026 0 0 1 11.944 13.55c.141 4.06.116 8.131.015 12.193-.11 4.476-2.493 7.209-7.816 9.057.7.558 1.323.985 1.859 1.505 2.644 2.566 5.475 4.978 7.842 7.78 3.568 4.225 4.274 9.118 2.506 14.419-1.149 3.442-2.049 6.967-3.047 10.459a5.5 5.5 0 0 0-.149 1.1c-.33 4.44.055 4.98 4.309 5.95 6.98 1.591 14.07 2.678 20.819 5.266 6.206 2.38 9.344 7.754 7.976 14.289q-2.771 13.235-5.483 26.483c-.063.3-.068.618-.126 1.173 4.716.88 9.321 2.044 10.929 7.545h11.592c2.64 0 5.28.029 7.919-.011 1.464-.022 2.777.152 3.358 1.744.562 1.54-.43 2.445-1.424 3.336H0Zm115.806-33c-.765-.093-1.283-.193-1.8-.212-5.851-.216-11.709-.327-17.553-.665-3.083-.178-6.141-.773-9.217-1.118a3.918 3.918 0 0 0-1.941.227c-5.972 2.649-11.917 5.357-17.875 8.039-9.091 4.092-18.088 8.352-26.349 14.014-1.007.69-1.584 1.219-1.226 2.612a43.87 43.87 0 0 1 1.2 6.846c.141 1.528.832 1.7 2.118 1.694q33.8-.047 67.609-.023h1.4a32.793 32.793 0 0 1 .029-4.319c.6-4.274 1.418-8.519 1.989-12.8.625-4.688 1.071-9.406 1.616-14.292Zm-66.266 8.974 30.844-14.156c-4.1-3.625-5.592-8.327-5.821-13.522-.263.04-.33.03-.365.059q-13.089 10.864-26.154 21.759a1.334 1.334 0 0 0-.3 1.174c.543 1.586 1.19 3.138 1.796 4.686ZM36.089 157.12c-.036-.52-.031-.929-.1-1.327-.5-2.958-.932-5.933-1.563-8.864a3.178 3.178 0 0 1 1.727-3.8c2.7-1.642 5.358-3.353 7.989-5.1.372-.246.792-.947.69-1.286-.431-1.435-1.052-2.812-1.662-4.361-4.881 3.264-9.613 6.4-14.313 9.591a2.572 2.572 0 0 0-.945 3.238c1.1 2.956 2.217 5.914 3.466 8.81a5.206 5.206 0 0 0 4.711 3.103Zm83.565-18.823a1.493 1.493 0 0 0-.182.347q-1.143 7.483-2.276 14.968a2.774 2.774 0 0 0 2.975 3.5c3.952.036 7.905.014 11.858.008.437 0 .874-.056 1.311-.085l.121-.446a27.106 27.106 0 0 0-3.076-1.311c-1.815-.534-3.68-.894-5.514-1.37a2.591 2.591 0 0 1-2.106-3.3c.194-1.034.42-2.063.63-3.094l1.877-9.217ZM94.476 40.505c-2.365 1-4.576 2.066-6.882 2.854-.991.339-1.367.7-1.348 1.711.05 2.585.019 5.172.021 7.758 0 3.088 0 3.09 3.128 3.221a8.354 8.354 0 0 0 1.265-.015 3.992 3.992 0 0 0 3.787-3.792c.099-3.947.029-7.902.029-11.732Zm-8.06-9.195v7.14a10.2 10.2 0 0 0 6.048-3.805 9.116 9.116 0 0 0-6.048-3.33Z"/><path data-name="Pfad 15" d="M70.596 43.913c-1.108-.292-2.049-.46-2.931-.788a7.608 7.608 0 0 1-4.819-9.041 36.248 36.248 0 0 1 1.983-5.658 7.966 7.966 0 0 1 5.634-4.419c.572-4.2-.205-7.848-3.53-10.778-2.019-1.779-2.168-3.34-.844-4.551 1.288-1.178 2.548-.779 4.466 1.036a16.211 16.211 0 0 1 5.167 12.741c-.164 12.558-.048 25.121-.07 37.681a4.151 4.151 0 0 0 1.116 3.318 3.034 3.034 0 0 1 .749 1.689c.249 1.828.419 3.669.544 5.51a2.5 2.5 0 1 1-4.959.642 17.172 17.172 0 0 1-.24-2.041 9.687 9.687 0 0 0-1.209-4.328 8.787 8.787 0 0 1-1.011-4.059c-.114-5.064-.046-10.132-.046-15.2Zm-.1-5.4v-9.066c-.357.274-.655.383-.727.576a44.131 44.131 0 0 0-2 5.766c-.341 1.524.872 2.541 2.723 2.719Z"/><path data-name="Pfad 16" d="M76.566 83.642a2.536 2.536 0 0 1 .04-5.072 2.537 2.537 0 0 1-.04 5.072Z"/><path data-name="Pfad 23" d="M70.492 38.507c-1.851-.178-3.064-1.2-2.729-2.724a44.136 44.136 0 0 1 2-5.766c.072-.193.37-.3.727-.576Z"/></g></svg>
