<svg xmlns="http://www.w3.org/2000/svg" width="140.913" height="140.871"><g data-name="Gruppe 4" opacity=".748" fill="#fff" stroke="#fff" stroke-miterlimit="10"><path data-name="Pfad 25" d="M.5 137.366a3.422 3.422 0 0 1 3.167-1.39q24.994.055 49.989.024h1.708c1.283-4.263 4.686-5.66 8.757-6.314-.219-2.376-.358-4.679-.654-6.962-1.245-9.607-2.665-19.194-3.772-28.817-.89-7.744-1.519-15.6.728-23.191 2.569-8.674 1.66-17.147-.337-25.683a1.382 1.382 0 0 0-1.158-1.245 1.966 1.966 0 0 1-1.565-2.374 2.058 2.058 0 0 1 2.181-1.851c.682-.02 1.366-.023 2.049 0 1.624.046 2.32.844 2.4 2.481a10.47 10.47 0 0 0 .495 2.516c2.08 6.873 1.9 13.949 1.742 20.992-.043 1.938-.974 3.857-1.494 5.785a45.336 45.336 0 0 0-1.2 15.988c.621 6.834 1.567 13.64 2.409 20.453.357 2.888.845 5.761 1.186 8.651.105.892.342 1.28 1.311 1.241 1.807-.072 3.619-.02 5.538-.02.167-2.991.341-5.842.482-8.7q.608-12.275 1.189-24.551c.141-3.012.545-3.395 3.535-3.587a17.2 17.2 0 0 0 12.28-5.778c5.149-5.894 10.061-11.994 15.07-18.011a1.574 1.574 0 0 0 .171-.337l-5.618-5.581-9.42 8.369c-2.45 2.177-4.868 4.392-7.373 6.5a3.843 3.843 0 0 1-2.185.86c-3.047.1-6.1.057-9.15.036a2.225 2.225 0 0 1-2.505-2.127c-.037-1.327.947-2.218 2.528-2.232 2.185-.019 4.375-.092 6.554.025a4.8 4.8 0 0 0 3.762-1.385 4.545 4.545 0 0 0 1.738-3.693 44.131 44.131 0 0 1 2.031-13.988 4.308 4.308 0 0 0 .217-1.327c.006-1.806.72-2.576 2.539-2.581 5.281-.013 10.563-.041 15.843.022a3.753 3.753 0 0 0 3.146-1.189c.511-.574 1.212-.984 1.7-1.575a15.465 15.465 0 0 0 1.217-2.12h-2.177c-26.406 0-52.812-.068-79.217.062a14.258 14.258 0 0 1-11.321-5.234 2.127 2.127 0 0 1-.078-3.068 2.207 2.207 0 0 1 3.079-.076 1.168 1.168 0 0 1 .2.18c2.547 3.293 5.984 3.891 9.955 3.828 11.288-.179 22.58-.063 33.871-.063h1.612c-.638-1.476-1.223-2.747-1.743-4.045a20.323 20.323 0 0 1-1.575-9.329 8.738 8.738 0 0 1 2.872-6.015 4.584 4.584 0 0 0 1.681-3.835 6.74 6.74 0 0 1 13.478.232 4.331 4.331 0 0 0 1.56 3.472c3.121 2.905 3.608 6.68 2.743 10.584-.662 2.989-1.8 5.872-2.736 8.841h28.11c.151-.967.333-1.942.453-2.923a5.057 5.057 0 0 1 6.7-4.513 6.008 6.008 0 0 1 4.394 4.087 14.128 14.128 0 0 1 .472 1.707 2.716 2.716 0 0 0 1.878 2.332 3.868 3.868 0 0 1 2.391 3.818c.041 1.547.034 3.1.008 4.643-.043 2.5-1.577 4.374-4.062 4.441a4.09 4.09 0 0 0-3.3 1.987c-2.712 3.426-5.362 6.9-8.123 10.287q-8.5 10.422-17.1 20.764a23.2 23.2 0 0 1-15.793 8.335c-.8 16.872-1.606 33.726-2.419 50.807h1.89q28.955 0 57.91.033a4.04 4.04 0 0 1 2.459.8c1.068.92.688 2.226-.791 3.54H.5ZM68.645 19.099c-.015 2.8 1.28 6.009 2.924 9.052 1.634 3.025 6.625 2.974 8.146-.122a33.576 33.576 0 0 0 2.633-7.253c.96-4.206-.207-6.576-3.565-8.313a7.048 7.048 0 0 0-10.138 6.636Zm49.98 22.643c-2.443-4.19-2.141-6.635 1.193-10.163.167-.177.369-.483.323-.672a12.33 12.33 0 0 0-.915-2.979 2.507 2.507 0 0 0-1.668-.862c-.182-.032-.681.789-.76 1.265-.466 2.826-.785 5.677-1.3 8.492a4.734 4.734 0 0 1-1.218 2.448c-2.4 2.3-4.924 4.458-7.4 6.67-.8.712-1.592 1.426-2.134 1.912l5.057 5.1Zm-50.773 80.332c.239 2.887.495 5.643.687 8.4.145 2.086-.275 2.6-2.356 3.125-1.319.336-2.656.619-3.949 1.036a11.236 11.236 0 0 0-1.885 1.02l.144.254h13.046v-13.835Zm21.689-66.558 12.947-11.534h-11a35.467 35.467 0 0 0-1.947 11.534ZM123.9 39.451v-4.674c-1.768.151-2.465.881-2.423 2.458.035 1.487.803 2.196 2.423 2.216ZM73.249 7.464H78c-.311-1.839-1.116-2.654-2.473-2.584-1.327.071-2.112.937-2.281 2.584Z"/><path data-name="Pfad 26" d="M29.868 43.916c-3.913 0-7.826.052-11.738-.016a6.83 6.83 0 0 1-6.645-5.925 6.712 6.712 0 0 1 4.548-7.24 7.524 7.524 0 0 1 1.864-.372 2.245 2.245 0 0 1 2.488 2.005c.1 1.142-.737 1.975-2 2.353a4.282 4.282 0 0 0-2.231 1.292c-1.07 1.523.236 3.476 2.29 3.524 2.365.055 4.731.016 7.1.016 5.369 0 10.737-.007 16.106.005 1.7 0 2.746 1.044 2.549 2.458-.166 1.19-1.088 1.9-2.585 1.9-3.913.015-7.826.005-11.738.005Z"/><path data-name="Pfad 27" d="M52.941 41.706a2.178 2.178 0 1 1-4.355-.024 2.157 2.157 0 0 1 2.185-2.119 2.182 2.182 0 0 1 2.17 2.143Z"/><path data-name="Pfad 30" d="M67.852 122.074h5.687v13.838H60.493l-.144-.254a11.241 11.241 0 0 1 1.885-1.02c1.293-.417 2.63-.7 3.949-1.036 2.081-.53 2.5-1.039 2.356-3.126-.192-2.758-.448-5.515-.687-8.402Z"/><path data-name="Pfad 32" d="M123.896 39.451c-1.616-.021-2.384-.73-2.423-2.216-.042-1.577.655-2.307 2.423-2.458Z"/><path data-name="Pfad 33" d="M73.246 7.464c.17-1.648.95-2.515 2.279-2.584 1.357-.07 2.162.745 2.473 2.584Z"/></g></svg>
